<svg width="768" height="1721" viewBox="0 0 768 1721" fill="none" xmlns="http://www.w3.org/2000/svg">
<path d="M0 0H768V1469H0V0Z" fill="#EDE8D6"/>
<path d="M-6.10352e-05 1578.34L768 1668.89V1654.37L-6.10352e-05 1563.82V1578.34Z" fill="#EDE8D6"/>
<path d="M-6.10352e-05 1538.19L768 1633.87V1620.2L-6.10352e-05 1520.25V1538.19Z" fill="#EDE8D6"/>
<path d="M-6.10352e-05 1488.65L768 1592.01V1574.07L-6.10352e-05 1469V1488.65Z" fill="#EDE8D6"/>
<path d="M-6.10352e-05 1597.14L768 1685.98V1698.79L-6.10352e-05 1609.95V1597.14Z" fill="#EDE8D6"/>
<path d="M-6.10352e-05 1624.47L768 1709.89V1721L-6.10352e-05 1638.99V1624.47Z" fill="#EDE8D6"/>
<path d="M0 1469L768 1575V1469H0Z" fill="#EDE8D6"/>
<path d="M768 688.342L0 778.892V764.369L768 673.82V688.342Z" fill="white"/>
<path d="M768 648.193L0 743.868V730.2L768 630.254V648.193Z" fill="white"/>
<path d="M768 598.647L0 702.01V684.071L768 579V598.647Z" fill="white"/>
<path d="M768 707.136L0 795.976V808.79L768 719.949V707.136Z" fill="white"/>
<path d="M768 734.471L0 819.895V831L768 748.993V734.471Z" fill="white"/>
</svg>
