<svg width="1920" height="2761" viewBox="0 0 1920 2761" fill="none" xmlns="http://www.w3.org/2000/svg">
<path d="M0 0H1920V2148H0V0Z" fill="#EDE8D6"/>
<path d="M0 2264.36L1920 2490.73V2454.42L0 2228.05V2264.36Z" fill="#EDE8D6"/>
<path d="M0 2163.98L1920 2403.17V2369L0 2119.14V2163.98Z" fill="#EDE8D6"/>
<path d="M0 2040.12L1920 2298.53V2253.68L0 1991V2040.12Z" fill="#EDE8D6"/>
<path d="M0 2311.34L1920 2533.44V2565.47L0 2343.37V2311.34Z" fill="#EDE8D6"/>
<path d="M0 2379.68L1920 2593.24V2621L0 2415.98V2379.68Z" fill="#EDE8D6"/>
<path d="M1142 2148L1920 2256V2148H1142Z" fill="#EDE8D6"/>
<path d="M1920 1013.92L0 1239.94V1203.69L1920 977.675V1013.92Z" fill="white"/>
<path d="M1920 913.708L0 1152.52V1118.4L1920 868.932V913.708Z" fill="white"/>
<path d="M1920 790.041L0 1048.04V1003.26L1920 741V790.041Z" fill="white"/>
<path d="M1920 1060.83L0 1282.58V1314.56L1920 1092.81V1060.83Z" fill="white"/>
<path d="M1920 1129.06L0 1342.28V1370L1920 1165.31V1129.06Z" fill="white"/>
</svg>
