<svg width="112" height="80" viewBox="0 0 112 80" fill="none" xmlns="http://www.w3.org/2000/svg">
<path d="M64.2238 15.8759C63.8909 15.8759 63.5857 15.71 63.3915 15.4057L54.958 1.49089C54.6806 1.04827 54.8193 0.439676 55.2909 0.163041C55.7348 -0.113595 56.3451 0.0247229 56.6225 0.495004L65.0838 14.4374C65.3612 14.8801 65.2225 15.4887 64.7509 15.7653C64.5844 15.8483 64.3902 15.8759 64.2238 15.8759Z" fill="#232B3E"/>
<path d="M79.5095 41.3263H72.2134C71.8805 41.3263 71.5476 41.1603 71.3812 40.856C71.2147 40.5517 71.2147 40.1921 71.3812 39.9155L72.6295 37.6747C69.6057 31.976 64.8063 27.3285 60.1734 23.7876L56.3173 26.2773C55.8735 26.5816 55.2909 26.4433 54.9857 26.0007C54.6806 25.5581 54.8193 24.9771 55.2631 24.6728L58.5367 22.5151C52.4612 18.1719 47.0793 15.8482 46.9683 15.7928C46.7186 15.6822 46.5244 15.4609 46.4412 15.2119C46.358 14.9353 46.3857 14.6586 46.5244 14.4096L54.9857 0.467207C55.2631 0.0245898 55.8457 -0.141392 56.3173 0.135244C56.7612 0.41188 56.9276 0.992815 56.6502 1.4631L48.7438 14.4926C50.7412 15.4332 55.3186 17.7293 60.3122 21.3809L65.9438 17.6463C66.1657 17.508 66.4431 17.4526 66.6928 17.508C66.9425 17.5633 67.1644 17.7293 67.3031 17.9506L80.3973 39.8601C80.5637 40.1644 80.5915 40.5241 80.3973 40.8284C80.1753 41.1326 79.8424 41.3263 79.5095 41.3263ZM73.8224 39.3898H77.7895L66.0825 19.804L61.8657 22.5981C66.6096 26.305 71.4644 31.2014 74.5437 37.2044C74.6824 37.4811 74.6824 37.813 74.516 38.1173L73.8224 39.3898Z" fill="#232B3E"/>
<path d="M47.3291 15.8758C47.1626 15.8758 46.9962 15.8205 46.8297 15.7375C46.3859 15.4609 46.2194 14.8799 46.4968 14.4096L54.9581 0.467207C55.2355 0.0245898 55.8181 -0.141392 56.2897 0.135244C56.7336 0.41188 56.9 0.992815 56.6226 1.4631L48.1613 15.4055C47.9672 15.7375 47.6342 15.8758 47.3291 15.8758Z" fill="#232B3E"/>
<path d="M39.3391 41.3286H32.043C31.7101 41.3286 31.3772 41.135 31.2108 40.8307C31.0443 40.5264 31.0443 40.1668 31.2108 39.8625L44.3049 17.9529C44.4436 17.7316 44.6656 17.5656 44.9153 17.5103C45.1649 17.455 45.4424 17.5103 45.6643 17.6486L51.2959 21.3832C56.2617 17.7593 60.8668 15.4355 62.8365 14.495L54.9578 1.49309C54.6804 1.05047 54.8191 0.441874 55.2907 0.165238C55.7346 -0.111398 56.3449 0.0269202 56.6223 0.497201L65.0836 14.4396C65.2223 14.6886 65.25 14.9652 65.1668 15.2419C65.0836 15.5185 64.8894 15.7122 64.6397 15.8228C64.5287 15.8781 59.1468 18.2019 53.0714 22.5451L56.3449 24.7028C56.7888 25.0071 56.8997 25.5881 56.6223 26.0307C56.3172 26.4733 55.7346 26.5839 55.2907 26.3073L51.4346 23.7623C46.8017 27.3032 42.0024 31.9783 38.9785 37.6494L40.2269 39.8901C40.3933 40.1944 40.3933 40.554 40.2269 40.8307C40.0049 41.135 39.6998 41.3286 39.3391 41.3286ZM33.7353 39.3922H37.7024L36.9811 38.1197C36.8146 37.843 36.8146 37.5111 36.9533 37.2068C40.0327 31.1761 44.8875 26.3073 49.6314 22.6004L45.4146 19.8064L33.7353 39.3922Z" fill="#232B3E"/>
<path d="M7.74141 49.2941L14.6214 64.1495C15.0098 64.9517 13.7614 65.505 13.4008 64.7581L7.10335 51.1476L1.3053 64.7581C0.944658 65.5603 -0.275984 64.9794 0.0569183 64.1495L6.49303 49.2941C6.63174 48.9068 7.46399 48.7132 7.74141 49.2941ZM10.4879 59.6956L12.624 64.1495C12.9846 64.9517 11.7085 65.5326 11.3756 64.7581L9.54463 60.6362H4.96723L3.10852 64.7581C2.80336 65.3667 1.80466 65.0347 2.02659 64.3154L4.024 59.6956C4.10723 59.419 4.24594 59.253 4.63433 59.253H10.0162C10.2382 59.253 10.4046 59.4743 10.4879 59.6956Z" fill="#232B3E"/>
<path d="M18.3664 56.4583V56.9839C18.3664 58.3117 16.0638 58.3117 16.0638 56.9839V56.4583C16.0638 54.9368 18.3664 54.9368 18.3664 56.4583Z" fill="#232B3E"/>
<path d="M29.1859 50.8424C27.244 50.3998 23.9705 49.5975 23.3602 52.3086C23.1105 53.3874 23.4434 54.162 24.2756 54.8813C26.2731 56.5687 28.7698 56.7071 30.2679 59.4734C30.8505 60.5523 30.7395 61.7418 30.2124 62.7377C28.5479 65.9467 25.2743 65.4211 22.1395 64.3145C21.446 64.0656 21.9176 62.7654 22.5834 63.125C25.2466 64.5082 30.1569 64.1486 29.1859 60.1097C28.7421 59.1968 27.8821 58.3945 26.6614 57.7029C24.3866 56.4304 21.3073 55.5452 22.1395 52.0319C23.0273 48.159 26.2176 49.0166 29.5189 49.6252C29.713 49.6529 29.824 49.7635 29.824 49.7635C30.2679 50.2338 29.7963 50.953 29.1859 50.8424Z" fill="#232B3E"/>
<path d="M39.6722 49.5151V64.4534C39.6722 65.394 38.4238 65.4216 38.4238 64.4534V50.1514H34.0683C33.2638 50.1514 33.236 48.9065 34.0683 48.9065H39.0341C39.2005 48.9065 39.367 48.9065 39.5334 49.0448C39.6722 49.2108 39.6722 49.3768 39.6722 49.5151ZM40.6986 49.5151V64.4534C40.6986 65.394 41.947 65.4216 41.947 64.4534V50.1514H46.3025C47.107 50.1514 47.1347 48.9065 46.3025 48.9065H41.3367C41.1702 48.9065 41.0038 48.9065 40.8373 49.0448C40.6986 49.2108 40.6986 49.3768 40.6986 49.5151Z" fill="#232B3E"/>
<path d="M55.1243 49.2936L62.0043 64.149C62.3927 64.9512 61.1443 65.5045 60.7837 64.7576L54.4863 51.1471L48.6882 64.7576C48.3276 65.5598 47.107 64.9789 47.4399 64.149L53.876 49.2936C54.0147 48.9064 54.8469 48.7127 55.1243 49.2936ZM57.8985 59.6951L60.0347 64.149C60.3953 64.9512 59.1192 65.5322 58.7863 64.7576L56.9553 60.6357H52.3224L50.4915 64.7576C50.1863 65.3662 49.1876 65.0342 49.4095 64.315L51.4069 59.6951C51.4902 59.4185 51.6289 59.2525 52.0173 59.2525H57.4269C57.6211 59.2525 57.7876 59.4738 57.8985 59.6951Z" fill="#232B3E"/>
<path d="M68.3852 49.5151V64.4534C68.3852 65.394 67.1368 65.4216 67.1368 64.4534V50.1514H62.7813C61.9768 50.1514 61.9491 48.9065 62.7813 48.9065H67.7471C67.9136 48.9065 68.08 48.9065 68.2465 49.0448C68.3852 49.2108 68.3852 49.3768 68.3852 49.5151ZM69.4116 49.5151V64.4534C69.4116 65.394 70.66 65.4216 70.66 64.4534V50.1514H75.0155C75.82 50.1514 75.8477 48.9065 75.0155 48.9065H70.0497C69.8832 48.9065 69.7168 48.9065 69.5503 49.0448C69.4116 49.2108 69.4116 49.3768 69.4116 49.5151Z" fill="#232B3E"/>
<path d="M78.4553 49.5425C78.4553 48.7403 79.7037 48.7126 79.7037 49.5425V64.4808C79.7037 65.4491 78.4553 65.4214 78.4553 64.4808V49.5425Z" fill="#232B3E"/>
<path d="M95.4057 52.1152C96.1825 53.443 96.6263 55.1305 96.6263 57.2329C96.6263 59.1971 96.016 60.8569 95.1005 62.24V62.3784C93.8799 64.2042 92.0767 65.2277 89.6354 65.2277C87.2219 65.2277 85.4186 64.1765 84.0315 62.3784C82.9496 60.8569 82.5057 59.0587 82.5057 57.0946C82.5057 54.8262 82.9496 53.1664 83.8651 51.8109C85.0857 49.8191 87.0277 48.9339 89.9683 48.9339C92.5205 48.9062 94.3515 49.9851 95.4057 52.1152ZM83.7541 57.0946C83.7541 58.7544 84.198 60.2483 85.0857 61.6038C86.1677 63.1253 87.6657 63.8722 89.6354 63.8722C91.6328 63.8722 92.9644 63.0976 94.0464 61.6038C94.9341 60.4143 95.2392 58.8928 95.2392 57.2329C95.2392 55.4348 94.9341 53.941 94.3515 52.7238C93.4083 51.0363 91.938 50.1511 89.9683 50.1511C87.6935 50.1511 86.0012 50.8703 84.9193 52.5578C84.198 53.609 83.7541 55.1028 83.7541 57.0946Z" fill="#232B3E"/>
<path d="M99.4006 49.2382C99.6226 48.7125 100.455 48.7402 100.649 49.2382L108.916 64.2041C109.221 65.0064 108.028 65.615 107.668 64.6744L100.649 51.3959V64.5638C100.649 65.2277 99.4006 65.532 99.4006 64.5361V49.2382ZM111.552 64.8681C111.33 65.3937 110.581 65.3383 110.303 64.8681L101.814 49.9021C101.509 49.0998 102.702 48.4912 103.063 49.4318L110.331 62.7103V49.7638C110.331 49.0998 111.579 48.7955 111.579 49.7914V64.8681H111.552Z" fill="#232B3E"/>
<path d="M29.0471 74.8834C29.38 74.828 29.8794 74.7727 30.3232 74.7727C31.0445 74.7727 31.4884 74.911 31.8213 75.1877C32.071 75.409 32.2374 75.7686 32.2374 76.1559C32.2374 76.8198 31.7936 77.2624 31.2665 77.4561V77.4837C31.6549 77.622 31.8768 77.9817 32.0155 78.5073C32.182 79.2265 32.2929 79.7245 32.4039 79.9181H31.7103C31.6271 79.7798 31.5161 79.3372 31.3774 78.7009C31.2387 77.9817 30.9336 77.7327 30.351 77.705H29.7407V79.9181H29.0749V74.8834H29.0471ZM29.7129 77.2071H30.3787C31.1 77.2071 31.5439 76.8198 31.5439 76.2389C31.5439 75.5749 31.0723 75.2983 30.351 75.2983C30.0181 75.2983 29.8239 75.326 29.6852 75.3536V77.2071H29.7129Z" fill="#232B3E"/>
<path d="M37.9523 77.5382H35.9549V79.3916H38.1742V79.9449H35.2891V74.8271H38.0632V75.3804H35.9549V76.9849H37.9523V77.5382Z" fill="#232B3E"/>
<path d="M41.1426 79.115C41.4478 79.3086 41.8639 79.4469 42.3355 79.4469C43.0013 79.4469 43.4174 79.0873 43.4174 78.5894C43.4174 78.1191 43.14 77.8425 42.4465 77.5658C41.6142 77.2892 41.0871 76.8466 41.0871 76.1273C41.0871 75.3251 41.7529 74.7441 42.7516 74.7441C43.2787 74.7441 43.6671 74.8548 43.8891 74.9931L43.6949 75.5464C43.5284 75.4357 43.1955 75.2974 42.7239 75.2974C42.0304 75.2974 41.7529 75.7124 41.7529 76.072C41.7529 76.5423 42.0581 76.7912 42.7794 77.0402C43.6394 77.3722 44.0833 77.7871 44.0833 78.534C44.0833 79.3086 43.5007 80.0002 42.3078 80.0002C41.8084 80.0002 41.2813 79.8619 41.0039 79.6683L41.1426 79.115Z" fill="#232B3E"/>
<path d="M47.8 74.8271V79.9449H47.1348V74.8271H47.8Z" fill="#232B3E"/>
<path d="M51.1297 74.8824C51.5458 74.8271 52.0174 74.7717 52.5445 74.7717C53.4877 74.7717 54.1813 74.993 54.6251 75.408C55.0968 75.8229 55.3464 76.4039 55.3464 77.2338C55.3464 78.0637 55.069 78.7553 54.5974 79.2256C54.0981 79.6958 53.3213 79.9725 52.3226 79.9725C51.851 79.9725 51.4626 79.9448 51.1019 79.9171V74.8824H51.1297ZM51.7955 79.4192C51.9619 79.4469 52.2116 79.4469 52.4613 79.4469C53.8761 79.4469 54.6529 78.6446 54.6529 77.2891C54.6529 76.0719 53.9871 75.325 52.5722 75.325C52.2393 75.325 51.9619 75.3527 51.7955 75.3803V79.4192Z" fill="#232B3E"/>
<path d="M61.0057 77.5382H59.0083V79.3916H61.2277V79.9449H58.3425V74.8271H61.1167V75.3804H59.0083V76.9849H61.0057V77.5382Z" fill="#232B3E"/>
<path d="M64.2793 79.9171V74.7993H65.0006L66.6374 77.3997C66.998 78.0083 67.3032 78.5339 67.5528 79.0595H67.5806C67.5251 78.3679 67.4974 77.7593 67.4974 76.9571V74.7993H68.1077V79.9171H67.4419L65.8051 77.3167C65.4445 76.7358 65.1116 76.1548 64.8619 75.6016H64.8341C64.8619 76.2378 64.8896 76.8741 64.8896 77.704V79.8894H64.2793V79.9171Z" fill="#232B3E"/>
<path d="M75.0432 79.7511C74.7935 79.8617 74.3219 80.0001 73.6838 80.0001C72.2412 80.0001 71.1593 79.0872 71.1593 77.3997C71.1593 75.7952 72.2412 74.7163 73.8503 74.7163C74.4883 74.7163 74.9045 74.8546 75.0709 74.9376L74.9045 75.4909C74.6548 75.3802 74.2941 75.2696 73.878 75.2696C72.6851 75.2696 71.8806 76.0442 71.8806 77.372C71.8806 78.6169 72.6019 79.4191 73.8503 79.4191C74.2664 79.4191 74.6825 79.3361 74.9322 79.1978L75.0432 79.7511Z" fill="#232B3E"/>
<path d="M80.7024 77.5382H78.705V79.3916H80.9243V79.9449H78.0392V74.8271H80.8134V75.3804H78.705V76.9849H80.7024V77.5382Z" fill="#232B3E"/>
</svg>
