<svg width="122" height="83" viewBox="0 0 122 83" fill="none" xmlns="http://www.w3.org/2000/svg">
<g clip-path="url(#clip0)">
<path d="M205.625 7.23874e-06V103.928C194.023 66.6575 169.807 38.8569 133.534 21.184C113.878 11.6133 90.9281 5.13152 65.0403 1.68809C54.6786 0.366335 40.8989 0.048318 31.23 0.0123993C24.3466 -0.0131717 19.459 0.00873526 19.459 0.00873526V2.27139C92.6642 2.27139 184.398 22.45 205.625 117.701L205.449 143H209.07V7.23874e-06H205.625Z" fill="#A2664E"/>
</g>
<g clip-path="url(#clip1)">
<path d="M140.374 0V81.3933C132.021 52.0229 113.595 30.1977 85.4999 16.5252C70.3641 9.18262 52.6971 4.22003 32.651 1.6881L0 2.16138V2.26266C55.2788 2.26266 124.428 16.5759 140.222 88.8372L140.374 89.5968L140.285 143H142.095V0H140.374Z" fill="#A2664E"/>
</g>
<g clip-path="url(#clip2)">
<path d="M124.369 83.3176V0H122.647V76.532C114.798 48.9846 97.5301 28.5772 71.1474 15.715C56.6648 8.72687 39.7008 4.01748 20.4075 1.6881L0.452637 2.26266C50.2811 4.03501 108.215 19.7661 122.647 82.6593L122.636 143H124.446L124.369 83.5201H124.419C124.369 83.4695 124.369 83.4189 124.369 83.3176Z" fill="#A2644B"/>
</g>
<defs>
<clipPath id="clip0">
<rect width="103" height="20" fill="white" transform="translate(19)"/>
</clipPath>
<clipPath id="clip1">
<rect width="122" height="49" fill="white"/>
</clipPath>
<clipPath id="clip2">
<rect width="122" height="83" fill="white"/>
</clipPath>
</defs>
</svg>
