<svg width="58" height="34" viewBox="0 0 58 34" fill="none" xmlns="http://www.w3.org/2000/svg">
<path d="M29.4881 0.542991L29.4881 0.543054L29.4961 0.543155C34.7595 0.60972 39.7997 1.87852 44.4869 4.3252C49.0786 6.72197 53.1824 10.2341 56.351 14.4815C57.4563 15.9631 57.4563 18.0368 56.351 19.5186C53.1823 23.7661 49.0786 27.2781 44.487 29.6749C39.7997 32.1216 34.7594 33.3902 29.496 33.4569V33.4569L29.4881 33.4571C29.3505 33.461 28.7693 33.461 28.6317 33.4571L28.6317 33.457L28.6237 33.4569C23.3603 33.3904 18.3201 32.1216 13.6328 29.6749C9.04113 27.2781 4.93749 23.766 1.7689 19.5186L1.36889 19.817L1.76889 19.5186C0.663624 18.037 0.663624 15.9631 1.76889 14.4815L1.7689 14.4815C4.9376 10.2339 9.04113 6.72197 13.6328 4.3252C18.3201 1.87853 23.3604 0.609835 28.6237 0.543155V0.543218L28.6317 0.542991C28.7693 0.539055 29.3505 0.539055 29.4881 0.542991Z" stroke="#A2644B"/>
<path d="M13.66 17C13.66 7.89346 20.5987 0.540039 29.06 0.540039C37.5216 0.540039 44.4603 7.89346 44.46 17C44.46 26.1066 37.5213 33.46 29.06 33.46C20.5987 33.46 13.66 26.1066 13.66 17Z" stroke="#A2644B"/>
<path d="M34.5071 16.6218V16.6218C34.5071 19.6249 32.0631 22.0688 29.06 22.0688C26.057 22.0688 23.613 19.6249 23.613 16.6218C23.613 13.6187 26.057 11.1748 29.06 11.1748C32.0632 11.1748 34.5072 13.6188 34.5071 16.6218Z" stroke="#A2644B"/>
</svg>
