<svg width="27" height="16" viewBox="0 0 27 16" fill="none" xmlns="http://www.w3.org/2000/svg">
<path d="M13.6944 0.501284L13.6944 0.501348L13.7024 0.501449C16.1437 0.532323 18.4804 1.12053 20.6547 2.25547C22.7846 3.36725 24.69 4.99753 26.1614 6.96996L26.5622 6.67099L26.1614 6.96997C26.6129 7.57509 26.6129 8.42476 26.1614 9.03004C24.6899 11.0025 22.7846 12.6328 20.6547 13.7445C18.4804 14.8795 16.1436 15.4676 13.7024 15.4986V15.4985L13.6944 15.4987C13.6345 15.5004 13.3654 15.5004 13.3055 15.4987L13.3055 15.4987L13.2976 15.4986C10.8563 15.4677 8.51958 14.8795 6.34529 13.7445L6.11392 14.1878L6.34529 13.7445C4.21537 12.6328 2.31003 11.0025 0.838594 9.03004L0.838589 9.03003C0.387137 8.42489 0.387137 7.57511 0.838589 6.96997L0.838593 6.96996C2.31008 4.99747 4.21537 3.36725 6.34529 2.25547L6.11392 1.81222L6.34529 2.25547C8.51957 1.12053 10.8563 0.532376 13.2976 0.501448V0.501512L13.3055 0.501284C13.3654 0.499572 13.6345 0.499572 13.6944 0.501284Z" stroke="#A2644B"/>
<path d="M20.5 7.99998V8C20.5 12.166 17.3295 15.5 13.5 15.5C9.67051 15.5 6.5 12.166 6.5 8C6.5 3.83401 9.67051 0.5 13.5 0.5C17.3296 0.5 20.5001 3.83402 20.5 7.99998Z" stroke="#A2644B"/>
<path d="M16.1104 3.80518V3.80519C16.1104 5.07585 15.0758 6.11039 13.8052 6.11039C12.5345 6.11039 11.5 5.07585 11.5 3.80519C11.5 2.53454 12.5345 1.5 13.8052 1.5C15.0759 1.5 16.1104 2.53454 16.1104 3.80518Z" stroke="#A2644B"/>
</svg>
