<svg width="58" height="34" viewBox="0 0 58 34" fill="none" xmlns="http://www.w3.org/2000/svg">
<path d="M29.4881 0.502951L29.4881 0.503015L29.4961 0.503116C34.7596 0.569681 39.7997 1.83848 44.487 4.28516C49.0787 6.68194 53.1825 10.194 56.3511 14.4415C57.4563 15.923 57.4563 17.9967 56.3511 19.4785C53.1824 23.7261 49.0787 27.2381 44.487 29.6348C39.7998 32.0815 34.7595 33.3502 29.4961 33.4169V33.4168L29.4881 33.417C29.3505 33.421 28.7694 33.421 28.6318 33.417L28.6318 33.417L28.6238 33.4169C23.3603 33.3503 18.3202 32.0815 13.6329 29.6348C9.04119 27.2381 4.93755 23.726 1.76896 19.4785L1.36895 19.7769L1.76896 19.4785C0.663685 17.997 0.663685 15.923 1.76896 14.4415L1.76896 14.4415C4.93766 10.1939 9.04119 6.68193 13.6329 4.28516C18.3201 1.83849 23.3604 0.569796 28.6238 0.503116V0.503179L28.6318 0.502951C28.7694 0.499016 29.3505 0.499016 29.4881 0.502951Z" stroke="#A2644B"/>
<path d="M9.41998 16.96C9.41998 7.85342 16.3587 0.5 24.82 0.5C33.2816 0.5 40.2203 7.85342 40.22 16.96C40.22 26.0666 33.2813 33.42 24.82 33.42C16.3587 33.42 9.41998 26.0666 9.41998 16.96Z" stroke="#A2644B"/>
<path d="M23.907 16.5818V16.5818C23.907 19.5849 21.4631 22.0288 18.46 22.0288C15.4569 22.0288 13.013 19.5849 13.013 16.5818C13.013 13.5787 15.4569 11.1348 18.46 11.1348C21.4632 11.1348 23.9071 13.5787 23.907 16.5818Z" stroke="#A2644B"/>
</svg>
