<svg width="108" height="137" viewBox="0 0 108 137" fill="none" xmlns="http://www.w3.org/2000/svg">
<ellipse cx="53.6446" cy="53.1824" rx="53.6446" ry="53.1824" fill="url(#paint0_radial)"/>
<path d="M68.2296 49.0928C68.2296 54.5677 67.6421 62.6442 63.8821 67.459C62.3229 69.59 60.2632 71.312 57.8813 72.4757C55.4995 73.6395 52.8673 74.2099 50.2129 74.1377C47.5432 74.1931 44.9 73.6034 42.5116 72.4195C40.1233 71.2356 38.0615 69.4931 36.5045 67.3425C32.5878 62.5665 32.0003 54.723 31.9611 49.2869L16.5686 49.0928C16.0459 58.5968 18.8092 67.9932 24.4019 75.7297C27.4176 79.6909 31.3254 82.8983 35.8137 85.0962C40.3019 87.294 45.2462 88.4212 50.252 88.388H50.5654C55.5696 88.3669 60.5001 87.1911 64.9665 84.9535C69.4329 82.716 73.3125 79.4782 76.298 75.4967C81.6703 67.7633 84.2637 58.4637 83.6613 49.0928H68.2296Z" fill="white"/>
<path fill-rule="evenodd" clip-rule="evenodd" d="M34.925 116.848V124.225C34.925 129.195 32.6141 131.797 28.5408 131.797C24.6241 131.797 22.1957 129.195 22.1957 124.225V116.848H16.5557C16.5557 116.848 16.5557 122.75 16.5557 124.614C16.2771 127.576 17.1765 130.53 19.0624 132.845C20.2103 134.191 21.6656 135.245 23.3075 135.921C24.9493 136.596 26.7301 136.873 28.5016 136.728C30.2725 136.866 32.0513 136.587 33.692 135.912C35.3328 135.237 36.7888 134.186 37.9408 132.845C39.8267 130.53 40.7261 127.576 40.4475 124.614V116.848H34.925Z" fill="#1D1D1B"/>
<path fill-rule="evenodd" clip-rule="evenodd" d="M66.6893 126.982C66.7874 124.961 66.2687 122.959 65.2009 121.235C64.0513 119.757 62.5192 118.616 60.7675 117.932C59.0158 117.248 57.1099 117.048 55.2526 117.352H45.265V127.176V137H55.2526C60.9317 137 63.2817 135.641 65.2009 133.117C66.262 131.39 66.7801 129.39 66.6893 127.37V126.982ZM54.1951 132.224H50.7875V126.982V121.623H54.1951C58.1117 121.623 59.3651 122.361 60.3051 123.526C60.8918 124.58 61.1508 125.782 61.0492 126.982C61.1585 128.12 60.8977 129.263 60.3051 130.243C59.2867 131.564 58.1117 132.301 54.1951 132.301" fill="#1D1D1B"/>
<path fill-rule="evenodd" clip-rule="evenodd" d="M89.3667 120.22C87.7217 118.046 85.6458 117.191 80.75 117.191H70.2141V136.606H75.7366V133.267H80.75C85.6458 133.267 87.7217 132.218 89.3667 130.083C90.348 128.598 90.8406 126.848 90.7767 125.074C90.8455 123.311 90.3521 121.572 89.3667 120.104V120.22ZM84.4317 127.869C83.57 128.646 82.8258 128.879 80.515 128.879H75.7366V121.113H80.5541C82.8258 121.113 83.57 121.346 84.4708 122.162C85.1227 122.974 85.4441 123.999 85.3717 125.035C85.4343 126.093 85.115 127.14 84.4708 127.986" fill="#1D1D1B"/>
<defs>
<radialGradient id="paint0_radial" cx="0" cy="0" r="1" gradientUnits="userSpaceOnUse" gradientTransform="translate(41.2651 36.8186) rotate(63.2361) scale(73.3088 73.6887)">
<stop stop-color="#FFE910"/>
<stop offset="1" stop-color="#F07D00"/>
</radialGradient>
</defs>
</svg>
