<svg width="120" height="137" viewBox="0 0 120 137" fill="none" xmlns="http://www.w3.org/2000/svg">
<g clip-path="url(#clip0)">
<path d="M14.8894 0.0458984H32.6889L47.5783 51.8958V136.943H36.9069V61.436H10.334V136.943H0V51.6391L14.8894 0.0458984ZM36.696 51.3824L24.8859 10.1848H22.5238L10.8401 51.3824H36.696Z" fill="#060A03"/>
<path d="M58.5449 81.8038V61.3974H63.6487C64.3452 61.3782 65.0381 61.505 65.684 61.77C66.33 62.035 66.915 62.4325 67.4025 62.9374C67.9045 63.4287 68.2991 64.0216 68.5607 64.6775C68.8223 65.3334 68.9452 66.0378 68.9211 66.745V76.3277C68.9452 77.0349 68.8223 77.7393 68.5607 78.3952C68.2991 79.0511 67.9045 79.644 67.4025 80.1353C66.9171 80.6459 66.3334 81.0497 65.6876 81.322C65.0419 81.5943 64.348 81.7292 63.6487 81.7181L58.5449 81.8038ZM66.5591 66.7021C66.5648 66.3017 66.4911 65.904 66.3426 65.5329C66.1941 65.1618 65.9738 64.8246 65.6946 64.5414C65.4154 64.2582 65.0827 64.0348 64.7168 63.8842C64.3509 63.7336 63.9591 63.6589 63.5643 63.6646H60.8647V79.4935H63.5643C63.9595 79.4827 64.3485 79.3915 64.7083 79.2253C65.0681 79.0591 65.3913 78.8215 65.6588 78.5263C65.9263 78.231 66.1327 77.8843 66.2656 77.5067C66.3985 77.129 66.4552 76.7281 66.4324 76.3277L66.5591 66.7021Z" fill="#38B8BD"/>
<path d="M75.9648 61.3965H85.4973V63.7066H78.2846V69.9098H84.8224V72.1772H78.2846V79.4926H85.7082V81.8028H75.9648V61.3965Z" fill="#38B8BD"/>
<path d="M94.1861 61.3965V69.8242L96.9277 79.4926H97.4761L100.218 69.8242V61.3965H102.58V70.1237L99.2054 81.8028H95.1984L91.824 70.1237V61.3965H94.1861Z" fill="#38B8BD"/>
<path d="M109.455 61.3965H118.988V63.7066H111.775V69.9098H118.313V72.1772H111.775V79.4926H119.199V81.8028H109.455V61.3965Z" fill="#38B8BD"/>
<path d="M58.5449 88.9473H60.907V107.086H68.204V109.354H58.5449V88.9473Z" fill="#38B8BD"/>
<path d="M82.4604 104.299C82.463 104.991 82.3303 105.676 82.0696 106.315C81.8089 106.954 81.4256 107.534 80.942 108.021C80.405 108.597 79.7467 109.042 79.0163 109.324C78.286 109.605 77.5025 109.716 76.7241 109.647C75.946 109.712 75.1632 109.601 74.4334 109.319C73.7035 109.038 73.045 108.594 72.5061 108.021C71.5539 107.006 71.0251 105.658 71.03 104.257V94.0322C71.0207 92.6304 71.5501 91.28 72.5061 90.2675C73.0503 89.7017 73.7095 89.2631 74.438 88.9823C75.1665 88.7016 75.9467 88.5853 76.7241 88.6418C77.5014 88.5853 78.2814 88.7016 79.0099 88.9823C79.7384 89.2631 80.3979 89.7017 80.942 90.2675C81.4269 90.7629 81.8106 91.3503 82.0712 91.9963C82.3317 92.6424 82.4639 93.3342 82.4604 94.0322V104.299ZM80.0984 93.9894C80.099 93.5757 80.0163 93.1663 79.8554 92.7862C79.6944 92.4061 79.4588 92.0632 79.1626 91.7788C78.8664 91.4944 78.5158 91.2742 78.1328 91.1321C77.7498 90.9899 77.3422 90.9286 76.9349 90.9519C76.5262 90.9221 76.1159 90.9792 75.7301 91.119C75.3443 91.2588 74.9914 91.4785 74.6939 91.7642C74.3963 92.0499 74.1607 92.3953 74.0019 92.7784C73.8431 93.1615 73.7646 93.5739 73.7715 93.9894V104.299C73.7646 104.715 73.8431 105.127 74.0019 105.51C74.1607 105.894 74.3963 106.239 74.6939 106.525C74.9914 106.81 75.3443 107.03 75.7301 107.17C76.1159 107.31 76.5262 107.367 76.9349 107.337C77.3422 107.36 77.7498 107.299 78.1328 107.157C78.5158 107.015 78.8664 106.795 79.1626 106.51C79.4588 106.226 79.6944 105.883 79.8554 105.503C80.0163 105.123 80.099 104.713 80.0984 104.299V93.9894Z" fill="#38B8BD"/>
<path d="M91.7399 102.294V109.353H89.3779V89.1607H94.7347C95.3171 89.1512 95.8948 89.2641 96.432 89.4923C96.9692 89.7206 97.4542 90.0592 97.8559 90.4869C98.2905 90.8955 98.6354 91.3924 98.868 91.9452C99.1005 92.498 99.2156 93.0945 99.2057 93.6954V97.9735C99.2216 98.5816 99.1092 99.1863 98.8764 99.7469C98.6437 100.308 98.2959 100.811 97.8559 101.225C97.4542 101.652 96.9692 101.991 96.432 102.219C95.8948 102.448 95.3171 102.56 94.7347 102.551L91.7399 102.294ZM96.8015 93.4816C96.8072 93.1878 96.7544 92.8958 96.6462 92.6233C96.538 92.3508 96.3766 92.1033 96.1718 91.8956C95.9669 91.6878 95.723 91.5241 95.4543 91.4144C95.1856 91.3046 94.8977 91.2511 94.6081 91.2569H91.7399V99.813H94.6081C94.8941 99.8187 95.1784 99.7666 95.4442 99.6595C95.7101 99.5524 95.9523 99.3924 96.1566 99.1892C96.3608 98.986 96.5229 98.7436 96.6336 98.4761C96.7443 98.2086 96.8015 97.9213 96.8015 97.6311V93.4816Z" fill="#38B8BD"/>
<path d="M67.4026 121.669L65.4201 127.273H63.3534L61.3288 121.712L60.8226 119.615L60.6539 119.658L60.8226 123.038V136.941H58.5449V116.535H61.5818L64.3235 124.792H64.45L67.1495 116.535H70.1864V136.941H67.9087V123.038L68.1196 119.658L67.9087 119.615L67.4026 121.669Z" fill="#38B8BD"/>
<path d="M77.1458 116.535H86.6782V118.845H79.5078V125.048H86.0456V127.316H79.5078V134.631H86.9313V136.941H77.1458V116.535Z" fill="#38B8BD"/>
<path d="M103.761 116.535V136.941H101.02L95.9158 123.038L95.2831 120.257H95.03L95.2831 123.936V136.941H93.0476V116.535H95.7893L100.893 130.396L101.526 133.177H101.779L101.526 129.669V116.535H103.761Z" fill="#38B8BD"/>
<path d="M109.244 118.845V116.535H120V118.845H115.782V136.941H113.42V118.845H109.244Z" fill="#38B8BD"/>
<path d="M36.949 61.4326H10.3339V136.94H36.949V61.4326Z" fill="#38B8BD"/>
</g>
<defs>
<clipPath id="clip0">
<rect width="120" height="137" fill="white"/>
</clipPath>
</defs>
</svg>
