<svg width="258" height="58" viewBox="0 0 258 58" fill="none" xmlns="http://www.w3.org/2000/svg">
<g clip-path="url(#clip0)">
<path fill-rule="evenodd" clip-rule="evenodd" d="M10.9854 23.2812L19.3878 23.1758L15.0915 10.8653L10.9854 23.2812ZM0.00231934 38.4875L13.1635 2.8276L16.7367 2.78418L30.7188 38.1029L25.5029 38.1685L21.3255 27.9128L9.20361 28.0635L8.19954 30.6331L7.14704 33.3534L6.13857 36.0241L5.26662 38.4166L0.00231934 38.4875Z" fill="#060A03"/>
<path fill-rule="evenodd" clip-rule="evenodd" d="M38.591 35.1031L38.5399 35.6666L38.3796 36.216L37.7631 37.204L36.8092 37.912L35.5841 38.1947L35.001 38.1317L34.4558 37.9421L33.9599 37.6435L33.5257 37.2554L32.8925 36.286L32.7163 35.7384L32.6511 35.1784L32.7022 34.5094L32.8651 33.9069L33.4755 32.9189L34.3906 32.2764L34.9314 32.101L35.5127 32.0381L36.1565 32.0877L36.744 32.2454L37.2654 32.5104L37.7129 32.8684L38.0784 33.3141L38.3514 33.8395L38.5258 34.4376L38.591 35.1031Z" fill="#060A03"/>
<path fill-rule="evenodd" clip-rule="evenodd" d="M51.8472 21.1716L59.2835 21.0777L60.0286 21.0316L60.7244 20.9128L61.9672 20.4778L62.9977 19.8265L63.8661 18.9564L64.5231 17.948L64.9882 16.8262L65.2612 15.63L65.3414 14.3956L65.2313 13.148L64.9318 11.9456L64.4412 10.8265L63.7604 9.82784L62.8726 8.9772L61.8315 8.34896L60.5791 7.9449L59.8807 7.84211L59.1355 7.81464L51.6975 7.90325L51.8472 21.1716ZM46.708 2.86316L59.0712 2.70898L60.3968 2.75949L61.6395 2.93671L62.8004 3.24153L63.8749 3.65533L65.7412 4.7656L67.3319 6.26753L68.5535 8.02465L69.4343 9.99354L69.9742 12.1016L70.1715 14.2867L70.0226 16.4709L69.532 18.5869L68.6962 20.569L67.5169 22.3465L65.9597 23.8777L64.1206 25.0296L63.0558 25.4665L61.9029 25.7864L60.6698 25.9981L59.3487 26.0796L51.9124 26.1683L52.0393 37.8372L47.1132 37.8983L46.708 2.86316Z" fill="#060A03"/>
<path fill-rule="evenodd" clip-rule="evenodd" d="M79.7409 22.43L88.1443 22.3245L83.8506 10.0132L79.7409 22.43ZM68.7596 37.6362L81.9191 1.97897L85.4932 1.93555L99.4752 37.2552L94.2594 37.3181L90.0819 27.0589L77.96 27.2086L76.956 29.7783L75.8991 32.5057L74.895 35.1782L74.0239 37.5706L68.7596 37.6362Z" fill="#060A03"/>
<path fill-rule="evenodd" clip-rule="evenodd" d="M101.202 27.1134L106.127 26.9522L106.184 27.7018V27.5033L106.478 28.6455L106.732 29.163L107.049 29.6388L107.421 30.0818L107.846 30.4832L108.315 30.8457L108.821 31.1709L109.927 31.7025L111.113 32.0809L112.331 32.3033L113.533 32.368L116.242 31.948L117.515 31.4615L118.108 31.1531L118.664 30.8031L119.179 30.4079L119.645 29.9737L120.053 29.4988L120.406 28.9875L120.89 27.8498L121.052 26.5667L121.009 26.0032L120.894 25.3678L120.536 24.4755L120.272 24.1016L119.947 23.7693L119.575 23.4778L119.156 23.2208L118.695 23.0011L118.2 22.8097L117.672 22.6458L117.108 22.5058L116.526 22.3897L115.925 22.2887L114.682 22.1301L113.414 22.006L112.417 21.9059L111.407 21.7836L110.395 21.6303L109.393 21.4362L108.404 21.1952L107.441 20.8984L106.513 20.5386L105.633 20.1062L104.805 19.595L104.041 18.9942L102.743 17.4985L102.229 16.5876L101.816 15.5553L101.516 14.3909L101.34 13.0946L101.322 11.3871L101.603 9.66276L102.202 7.98716L103.091 6.46751L104.009 5.3785L105.077 4.42418L106.266 3.61075L107.555 2.93555L108.925 2.4039L110.349 2.01667L113.276 1.68262L115.233 1.79072L117.155 2.17174L118.993 2.83454L119.86 3.27758L120.682 3.79506L122.164 5.04976L123.397 6.62258L124.319 8.51704L124.646 9.5901L124.874 10.742L120.047 11.0078L119.675 9.93833L119.073 8.9849L118.309 8.22109L117.408 7.61323L116.399 7.156L115.32 6.8441L113.092 6.64473L111.368 6.84676L110.515 7.06208L109.689 7.3536L108.906 7.73108L108.184 8.18919L107.543 8.73236L106.992 9.37035L106.573 10.0952L106.309 10.8927L106.19 11.7433L106.208 12.6294L106.301 13.2674L106.477 13.8345L107.029 14.779L107.399 15.1618L107.826 15.4941L108.302 15.7786L108.823 16.0196L109.383 16.2207L109.977 16.3891L110.598 16.5291L111.244 16.6407L111.905 16.7293L112.579 16.81L113.26 16.8747L113.941 16.9331L114.822 17.043L115.722 17.1742L116.632 17.331L117.544 17.5197L118.45 17.7448L119.343 18.0106L120.214 18.3261L121.054 18.6956L121.854 19.1236L122.609 19.6162L123.314 20.1815L123.952 20.8186L125.008 22.3472L125.413 23.2474L125.718 24.2443L125.906 25.413L125.963 25.9943L125.985 26.5428L125.926 27.7771L125.724 28.945L124.931 31.0716L124.361 32.0295L123.689 32.9156L122.925 33.7237L122.076 34.468L121.157 35.1228L120.176 35.697L118.068 36.5999L115.837 37.1626L113.547 37.3708L111.55 37.2468L109.525 36.8215L107.553 36.1019L106.611 35.6297L105.71 35.0883L104.865 34.468L104.082 33.7742L103.377 33.0077L102.749 32.1659L101.78 30.2626L101.461 29.1993L101.266 28.0642L101.202 27.1134Z" fill="#060A03"/>
<path fill-rule="evenodd" clip-rule="evenodd" d="M132.568 16.5957L146.863 16.4185L146.691 1.64912L151.619 1.58887L152.022 36.5771L147.097 36.64L146.921 21.4223L132.627 21.6004L132.802 36.8181L127.924 36.8792L127.518 1.89014L132.397 1.829L132.568 16.5957Z" fill="#060A03"/>
<path fill-rule="evenodd" clip-rule="evenodd" d="M158.691 31.4394L174.386 31.2463L174.444 36.2996L153.822 36.5566L153.418 1.56751L173.993 1.31055L174.052 6.36658L158.402 6.56064L158.518 16.4228L173.826 16.2341L173.887 21.3389L158.576 21.5276L158.691 31.4394Z" fill="#060A03"/>
<path fill-rule="evenodd" clip-rule="evenodd" d="M176.349 36.2923L175.943 1.20307L179.71 1.20839L196.464 25.6805L196.18 1.00282L201.009 0.944336L201.414 35.9822L197.548 36.0318L180.943 11.7555L181.227 36.232L176.349 36.2923Z" fill="#060A03"/>
<path fill-rule="evenodd" clip-rule="evenodd" d="M208.166 35.8973L203.337 35.9584L202.932 0.969343L207.762 0.908203L208.166 35.8973Z" fill="#060A03"/>
<path fill-rule="evenodd" clip-rule="evenodd" d="M208.867 17.1135L220.463 0.749146L226.597 0.673828L213.902 18.2025L228.355 35.6461L221.978 35.7267L208.896 19.6672L208.867 17.1135Z" fill="#060A03"/>
<path fill-rule="evenodd" clip-rule="evenodd" d="M232.215 27.1374L234.056 28.7058L236.153 29.8746L238.456 30.6003L240.906 30.8342L243.353 30.54L245.662 29.7549L247.76 28.5321L249.599 26.9177L251.053 25.0197L252.153 22.8443L252.845 20.4288L253.065 17.814L252.784 15.2044L252.038 12.8067L250.886 10.6597L249.389 8.79889L247.514 7.23316L245.383 6.06441L243.058 5.33604L240.604 5.10211L238.163 5.39718L235.877 6.18137L233.806 7.40418L232.002 9.01509L230.514 10.9317L229.408 13.1142L228.712 15.5296L228.489 18.125L228.772 20.7124L229.525 23.1119L230.682 25.2607L232.215 27.1374ZM225.012 25.1384L223.962 21.7916L223.563 18.1844L223.879 14.5682L224.853 11.1958L226.401 8.13786L228.439 5.45832L230.966 3.21474L233.863 1.5161L237.088 0.415577L240.546 0L243.981 0.319879L247.286 1.3504L250.24 2.98347L252.825 5.15439L254.923 7.78254L256.542 10.8032L257.599 14.1491L257.998 17.7573L257.681 21.3716L256.707 24.7432L255.158 27.8011L253.122 30.4815L250.585 32.7366L247.672 34.4424L244.445 35.5323L240.964 35.939L237.497 35.6209L234.245 34.6125L231.297 32.9785L228.735 30.7855L226.636 28.1564L225.016 25.1384" fill="#060A03"/>
<path fill-rule="evenodd" clip-rule="evenodd" d="M4.63412 51.8018L9.39814 51.7407L6.9602 46.5447L4.63412 51.8018ZM6.76027 43.477L7.10112 43.4717L13.7667 57.8344L12.2624 57.853L10.0156 53.1292L4.01318 53.2036L1.89936 57.9823L0.345703 58.0001L6.76203 43.477" fill="#060A03"/>
<path fill-rule="evenodd" clip-rule="evenodd" d="M18.9624 47.086L20.317 47.0701L20.3355 48.6314L20.6376 48.1945L20.9494 47.8179L21.27 47.4981L21.5976 47.234L21.9359 47.0302L22.2802 46.8831L22.9945 46.7617L23.2746 46.7812L23.5635 46.8459L23.8647 46.9558L24.1739 47.11L23.4966 48.2787L23.2949 48.199L23.1108 48.1422L22.9426 48.1104L22.7928 48.1006L22.4643 48.1378L22.1428 48.2477L21.8275 48.4302L21.5201 48.6801L21.2339 49.0044L20.9855 49.4067L20.7759 49.8861L20.6033 50.4434L20.5487 50.7013L20.5011 51.0194L20.4632 51.3924L20.4333 51.8248L20.3998 52.8642L20.3989 54.1384L20.4412 57.751L19.0866 57.7687L18.9624 47.086Z" fill="#060A03"/>
<path fill-rule="evenodd" clip-rule="evenodd" d="M39.2083 49.0551L38.1646 49.7462L37.8027 49.3094L37.4116 48.9337L36.537 48.3586L35.5417 48.0201L34.9983 47.9377L34.4241 47.9174L33.5239 48.0069L32.7048 48.2514L31.9676 48.6537L31.3123 49.2119L30.776 49.88L30.3946 50.6111L30.1718 51.4094L30.1031 52.2743L30.2598 53.4058L30.4448 53.9454L30.7011 54.4664L31.3907 55.3703L32.29 56.0437L33.3539 56.4566L33.93 56.5576L34.535 56.5851L35.0882 56.5479L35.6157 56.4548L36.5907 56.0898L37.46 55.4943L37.8537 55.1089L38.221 54.6623L39.2814 55.3676L38.428 56.4034L37.9048 56.8235L37.3174 57.1814L36.6762 57.4668L35.9909 57.6741L35.2617 57.8026L34.4884 57.8513L33.8903 57.8354L33.317 57.7654L32.2477 57.4783L31.2806 56.9874L30.4149 56.2936L30.0317 55.8851L29.7006 55.4518L29.1862 54.5249L28.8727 53.5033L28.759 52.3965L28.7978 51.6345L28.9308 50.899L29.1571 50.1884L29.4795 49.5061L29.8838 48.8699L30.3594 48.3099L30.9063 47.8181L31.5237 47.4034L32.9127 46.8266L33.6675 46.6759L34.4619 46.6201L36.441 46.9196L36.9008 47.0871L37.3244 47.282L37.7128 47.4991L38.0651 47.7446L38.6852 48.3285L39.2083 49.0551Z" fill="#060A03"/>
<path fill-rule="evenodd" clip-rule="evenodd" d="M45.563 42.6312L46.8894 42.6152L46.959 48.6522L47.3659 48.1338L47.7931 47.6828L48.2423 47.3L48.7108 46.9863L49.7123 46.5663L50.7982 46.4166L51.3602 46.4467L51.8904 46.5548L52.8566 46.9978L53.6422 47.7041L53.9478 48.1338L54.1962 48.6176L54.2993 48.8905L54.3891 49.2016L54.4666 49.5471L54.5309 49.9299L54.6216 50.8063L54.6595 51.8271L54.7238 57.3253L53.3974 57.3421L53.3383 52.2462L53.3199 51.4008L53.2846 50.7088L53.2335 50.1692L53.2027 49.9565L53.1675 49.7837L53.0133 49.2884L52.8099 48.8604L52.5562 48.4953L52.2533 48.1994L51.9009 47.9708L51.4993 47.8095L51.0484 47.7138L50.5481 47.6846L49.9633 47.7457L49.4093 47.907L48.8905 48.171L48.4017 48.5379L47.9719 48.98L47.6231 49.47L47.3562 50.0079L47.1695 50.5945L47.129 50.8134L47.0938 51.073L47.0418 51.7154L47.0154 52.5262V53.5035L47.0612 57.4209L45.7339 57.4378L45.563 42.6312Z" fill="#060A03"/>
<path fill-rule="evenodd" clip-rule="evenodd" d="M61.7303 42.1533L61.9479 42.1728L62.1504 42.2331L62.3372 42.3359L62.5071 42.4785L62.6489 42.6531L62.752 42.8454L62.8145 43.0527L62.8374 43.2795L62.7626 43.7119L62.6648 43.9033L62.5256 44.0788L62.3592 44.2285L62.1751 44.334L61.9743 44.3987L61.7559 44.4217L61.3419 44.3455L61.157 44.2427L60.9878 44.0992L60.846 43.9264L60.7439 43.735L60.6584 43.3079L60.6761 43.0811L60.7333 42.8693L60.8311 42.6743L60.9694 42.4989L61.1358 42.35L61.3181 42.2446L61.7303 42.1533Z" fill="#060A03"/>
<path d="M62.4407 46.553L61.1152 46.5693L61.2449 57.2495L62.5704 57.2332L62.4407 46.553Z" fill="#060A03"/>
<path fill-rule="evenodd" clip-rule="evenodd" d="M70.1943 42.4817L71.5207 42.4648L71.5674 46.4319L73.6689 46.4062L73.6839 47.5935L71.5806 47.6183L71.6907 57.1146L70.3634 57.1305L70.2533 47.6378L68.4442 47.6582L68.431 46.4717L70.2401 46.4487L70.1943 42.4817Z" fill="#060A03"/>
<path fill-rule="evenodd" clip-rule="evenodd" d="M88.2649 50.4852L88.1108 49.9642L87.9276 49.5017L87.7136 49.0887L87.4705 48.7343L86.8742 48.1477L86.5158 47.9031L86.1168 47.6905L85.2598 47.4052L84.3597 47.3166L83.6286 47.3883L82.9496 47.5824L82.3277 47.9067L81.7614 48.355L81.3924 48.7733L81.0727 49.2854L80.8032 49.8862L80.5821 50.5791L88.2649 50.4852ZM79.4776 53.754L79.1993 52.7616L79.0989 51.7098L79.1632 50.7191L79.3781 49.7852L79.7436 48.8991L80.2615 48.0706L80.6534 47.5912L81.0788 47.1757L82.0283 46.5306L83.1099 46.1381L83.7 46.0353L84.3235 45.998L84.9656 46.0211L85.5769 46.1097L86.6998 46.4854L87.6933 47.1181L88.1416 47.5345L88.5574 48.0157L89.0567 48.7866L89.4196 49.6487L89.6469 50.6048L89.7349 51.654L80.4623 51.7674L80.5574 52.6535L80.7864 53.4554L81.6487 54.8076L82.2414 55.3224L82.8985 55.6839L83.6189 55.8992L84.4028 55.9648L85.9318 55.6609L86.6162 55.3224L87.1878 54.8918L87.452 54.6188L87.7259 54.2706L88.0078 53.8524L88.3011 53.3615L89.4249 53.9578L89.1466 54.4895L88.8445 54.9724L88.5212 55.4004L88.176 55.777L87.4177 56.391L86.5668 56.842L86.1036 57.0033L85.6121 57.1256L85.0836 57.2009L84.5305 57.2284L83.914 57.2098L83.3336 57.1371L82.7875 57.0095L82.2758 56.8323L81.351 56.3068L80.5627 55.5687L79.9303 54.6924L79.475 53.7576" fill="#060A03"/>
<path fill-rule="evenodd" clip-rule="evenodd" d="M106.055 48.2222L105.012 48.9142L104.65 48.48L104.259 48.1034L103.384 47.5284L102.388 47.1872L101.844 47.1075L101.271 47.0844L100.37 47.173L99.5509 47.4203L98.8146 47.8199L98.1584 48.379L97.622 49.0471L97.2407 49.7808L97.0169 50.5801L96.9491 51.4449L97.1059 52.5755L97.2909 53.1125L97.5472 53.6335L98.2368 54.54L99.1369 55.2134L100.2 55.6264L100.776 55.7247L101.381 55.7531L101.935 55.7176L102.463 55.6219L103.438 55.2595L104.306 54.6614L104.701 54.276L105.068 53.832L106.128 54.5356L105.274 55.5705L104.751 55.9914L104.164 56.3485L103.523 56.6365L102.837 56.8421L102.108 56.9705L101.334 57.0193L100.736 57.0024L100.163 56.9351L99.0938 56.6454L98.1267 56.1553L97.2618 55.4607L96.8787 55.0522L96.5466 54.6215L96.0331 53.692L95.7196 52.6739L95.606 51.5636L95.6438 50.8016L95.7768 50.0652L96.0041 49.3555L96.3255 48.6732L96.7298 48.0405L97.2054 47.477L97.7533 46.9887L98.3707 46.5705L99.7587 45.9928L100.514 45.8439L101.309 45.7881L103.288 46.0867L103.747 46.2551L104.17 46.4491L104.56 46.6689L104.912 46.9116L105.532 47.4956L106.055 48.2222Z" fill="#060A03"/>
<path fill-rule="evenodd" clip-rule="evenodd" d="M113.567 41.9437L114.893 41.9277L114.939 45.893L117.043 45.8664L117.056 47.0538L114.953 47.0812L115.062 56.5748L113.736 56.5908L113.626 47.0981L111.817 47.1193L111.802 45.932L113.612 45.9089L113.567 41.9437Z" fill="#060A03"/>
<path fill-rule="evenodd" clip-rule="evenodd" d="M122.74 45.7972L124.067 45.7812L124.123 50.7664L124.146 51.6082L124.188 52.3091L124.256 52.8655L124.296 53.0897L124.344 53.2785L124.522 53.7419L124.768 54.153L125.075 54.5101L125.446 54.8158L126.33 55.2323L126.828 55.3324L127.364 55.3626L127.899 55.3209L128.389 55.2101L129.243 54.7831L129.595 54.4791L129.887 54.1335L130.294 53.3139L130.336 53.1358L130.374 52.9169L130.407 52.6529L130.431 52.3463L130.459 51.6038V50.6875L130.404 45.7015L131.759 45.6855L131.819 50.9286L131.799 51.9626L131.716 52.8655L131.65 53.2652L131.569 53.6311L131.472 53.9634L131.359 54.2629L131.087 54.7928L130.748 55.2677L129.883 56.0333L129.355 56.316L128.762 56.5216L128.106 56.6483L127.385 56.6979L126.664 56.6669L126.001 56.5561L125.402 56.3656L124.862 56.0945L123.974 55.3466L123.623 54.8788L123.337 54.3471L123.217 54.0476L123.111 53.7109L123.021 53.3396L122.947 52.9302L122.843 52.0078L122.8 50.9401L122.74 45.7972Z" fill="#060A03"/>
<path fill-rule="evenodd" clip-rule="evenodd" d="M138.082 45.6056L139.437 45.5896L139.455 47.1509L139.757 46.7132L140.068 46.3366L140.388 46.0167L140.717 45.7553L141.055 45.5497L141.399 45.4044L142.112 45.2812L142.392 45.299L142.683 45.3654L142.983 45.4744L143.291 45.6286L142.616 46.7965L142.412 46.7176L142.23 46.6618L142.061 46.629L141.909 46.6192L141.583 46.6591L141.26 46.7699L140.948 46.9498L140.637 47.1988L140.351 47.524L140.104 47.9253L139.894 48.4065L139.721 48.963L139.667 49.2199L139.619 49.538L139.583 49.912L139.552 50.3444L139.518 51.3838V52.6571L139.558 56.2688L138.204 56.2883L138.082 45.6056Z" fill="#060A03"/>
<path fill-rule="evenodd" clip-rule="evenodd" d="M149.825 52.9754L150.133 53.4566L150.485 53.881L151.337 54.5598L152.317 54.9771L153.365 55.1083L154.421 54.9514L154.927 54.7671L155.418 54.5128L155.873 54.1965L156.272 53.8323L156.9 52.9542L157.282 51.9166L157.376 51.3539L157.401 50.762L157.313 49.8759L157.083 49.066L156.706 48.3341L156.184 47.6802L155.555 47.1432L154.86 46.7613L154.097 46.5371L153.269 46.4698L152.728 46.5114L152.207 46.6239L151.23 47.059L150.399 47.7475L150.056 48.1755L149.761 48.6611L149.524 49.1821L149.358 49.7137L149.233 50.824L149.384 51.9272L149.561 52.4588L149.825 52.9754ZM148.307 52.9701L148.005 51.9254L147.895 50.7921L147.983 49.6801L148.265 48.6478L148.741 47.697L149.417 46.8277L150.228 46.1011L151.124 45.5748L152.1 45.2576L153.157 45.1406L153.773 45.169L154.364 45.2665L155.457 45.6732L155.96 45.9815L156.431 46.3608L156.872 46.8091L157.282 47.3275L157.259 45.3648L158.566 45.348L158.691 56.0307L157.383 56.0466L157.361 54.2106L156.937 54.7086L156.489 55.1428L155.507 55.8162L154.428 56.2247L153.849 56.3319L153.247 56.3718L152.19 56.2832L151.212 55.9881L150.312 55.4848L149.891 55.1552L149.489 54.7742L148.802 53.9173L148.305 52.9683" fill="#060A03"/>
<path fill-rule="evenodd" clip-rule="evenodd" d="M165.183 41.1449L166.511 41.1289L166.682 55.932L165.354 55.9488L165.183 41.1449Z" fill="#060A03"/>
<path fill-rule="evenodd" clip-rule="evenodd" d="M187.638 46.1571L186.797 47.0831L186.263 46.6197L185.999 46.4407L185.735 46.2927L185.217 46.0986L184.705 46.0384L184.395 46.0685L184.107 46.1553L183.844 46.298L183.603 46.4938L183.405 46.7242L183.265 46.975L183.154 47.5288L183.256 48.0356L183.378 48.282L183.546 48.5177L183.655 48.6382L183.79 48.7649L184.14 49.0307L184.595 49.3187L185.154 49.627L185.839 50.0125L186.404 50.3909L186.854 50.7648L187.034 50.9491L187.183 51.1316L187.585 51.9211L187.688 52.3518L187.726 52.8046L187.676 53.4381L187.517 54.0221L187.244 54.5564L186.859 55.0455L186.392 55.4495L185.864 55.7411L185.281 55.9192L184.64 55.9839L183.766 55.8935L182.933 55.6037L182.187 55.1341L181.579 54.513L182.401 53.5196L182.66 53.7952L182.922 54.0336L183.188 54.2338L183.456 54.3986L184.007 54.6131L184.568 54.6813L184.954 54.6432L185.305 54.5378L185.628 54.3676L185.921 54.1337L186.162 53.8537L186.335 53.5524L186.466 52.879L186.367 52.3225L186.249 52.0709L186.086 51.8325L185.975 51.7182L185.837 51.5968L185.474 51.3301L184.996 51.035L184.402 50.716L183.754 50.351L183.22 49.9886L182.796 49.627L182.627 49.4472L182.486 49.2673L182.099 48.4937L182.001 48.0666L181.962 47.613L182.005 47.029L182.149 46.4965L182.394 46.0145L182.742 45.5803L183.642 44.9653L184.174 44.8094L184.757 44.75L185.472 44.8333L185.83 44.9405L186.189 45.0938L186.55 45.2923L186.912 45.536L187.275 45.8257L187.638 46.1571Z" fill="#060A03"/>
<path fill-rule="evenodd" clip-rule="evenodd" d="M194.964 40.9309L196.291 40.9141L196.338 44.8811L198.438 44.8554L198.452 46.0428L196.351 46.0702L196.459 55.5638L195.134 55.5798L195.023 46.0871L193.215 46.1083L193.199 44.9219L195.01 44.8979L194.964 40.9309Z" fill="#060A03"/>
<path fill-rule="evenodd" clip-rule="evenodd" d="M204.138 44.7845L205.463 44.7659L205.521 49.7546L205.545 50.5955L205.586 51.2937L205.652 51.8528L205.696 52.077L205.741 52.2666L205.921 52.7292L206.164 53.1403L206.473 53.4974L206.845 53.804L207.729 54.2196L208.227 54.3197L208.763 54.3481L209.295 54.3082L209.788 54.1983L210.639 53.7712L210.993 53.4673L211.286 53.1217L211.69 52.2985L211.735 52.124L211.773 51.9016L211.805 51.6402L211.829 51.3336L211.857 50.5911L211.859 49.6757L211.803 44.6897L213.156 44.6729L213.216 49.9132L213.198 50.9499L213.114 51.8528L213.048 52.2525L212.968 52.6184L212.87 52.9507L212.758 53.2476L212.484 53.781L212.147 54.255L211.281 55.0188L210.751 55.3042L210.161 55.5097L209.505 55.6356L208.784 55.6852L208.06 55.6542L207.4 55.5425L206.8 55.3529L206.261 55.0818L205.372 54.3339L205.021 53.8669L204.735 53.3344L204.616 53.0349L204.51 52.6991L204.419 52.3269L204.345 51.9175L204.241 50.996L204.198 49.9274L204.138 44.7845Z" fill="#060A03"/>
<path fill-rule="evenodd" clip-rule="evenodd" d="M221.527 52.0821L221.836 52.5659L222.189 52.9895L223.042 53.6665L224.023 54.0847L225.069 54.2158L226.126 54.059L226.633 53.8765L227.124 53.6222L227.58 53.3067L227.979 52.9399L228.607 52.0635L228.989 51.0268L229.077 50.4632L229.102 49.8696L229.019 48.9835L228.789 48.1727L228.412 47.4417L227.889 46.7877L227.26 46.2499L226.563 45.8697L225.802 45.6447L224.975 45.5765L224.43 45.6199L223.911 45.7306L222.943 46.1657L222.111 46.8551L221.766 47.2857L221.471 47.7695L221.237 48.2897L221.069 48.8213L220.943 49.9307L221.097 51.0312L221.277 51.5629L221.527 52.0821ZM220.011 52.0821L219.708 51.0392L219.597 49.9059L219.685 48.7912L219.963 47.7607L220.44 46.8099L221.115 45.9389L221.929 45.2114L222.821 44.6877L223.798 44.3687L224.855 44.2535L225.476 44.2792L226.066 44.3776L227.159 44.7834L228.128 45.471L228.568 45.9194L228.976 46.4404L228.905 40.3538L230.214 40.3379L230.385 55.1409L229.077 55.1577L229.058 53.3218L228.634 53.8215L228.183 54.2539L227.205 54.9274L226.124 55.3385L225.545 55.4431L224.941 55.4847L223.884 55.3961L222.907 55.1028L222.006 54.6004L221.586 54.2699L221.185 53.8898L220.498 53.032L220.003 52.0812" fill="#060A03"/>
<path fill-rule="evenodd" clip-rule="evenodd" d="M237.56 39.9697L237.778 39.9883L237.979 40.0468L238.167 40.1496L238.338 40.2949L238.479 40.4677L238.581 40.6591L238.644 40.8691L238.667 41.096L238.592 41.5257L238.493 41.7171L238.356 41.8952L238.189 42.0414L238.005 42.1495L237.803 42.2151L237.584 42.2381L237.172 42.1593L236.987 42.0556L236.818 41.9129L236.676 41.741L236.573 41.5514L236.489 41.1208L236.505 40.8957L236.564 40.6839L236.661 40.4908L236.801 40.3135L236.965 40.1656L237.148 40.0583L237.56 39.9697Z" fill="#060A03"/>
<path fill-rule="evenodd" clip-rule="evenodd" d="M236.951 44.3762L238.279 44.3594L238.404 55.0403L237.075 55.0589L236.951 44.3762Z" fill="#060A03"/>
<path fill-rule="evenodd" clip-rule="evenodd" d="M246.388 51.8209L246.687 52.2888L247.035 52.6999L247.869 53.3494L248.838 53.7437L249.357 53.8394L249.897 53.8678L250.436 53.8279L250.953 53.718L251.914 53.2971L252.736 52.629L253.072 52.209L253.362 51.7341L253.757 50.6876L253.878 49.5658L253.796 48.7019L253.561 47.9044L253.18 47.1742L252.652 46.5159L252.021 45.9692L251.336 45.581L250.596 45.3524L249.803 45.2842L249.011 45.3728L248.273 45.6174L247.594 46.0223L246.978 46.585L246.463 47.2584L246.1 47.9939L245.889 48.7958L245.822 49.6624L245.972 50.7789L246.388 51.8209ZM244.875 51.7456L244.58 50.7363L244.475 49.6553L244.55 48.5805L244.805 47.5774L245.24 46.6479L245.857 45.7875L246.255 45.3631L246.682 44.9909L247.613 44.4185L248.649 44.0694L249.209 43.9808L249.794 43.9453L250.377 43.9666L250.934 44.0437L251.975 44.3662L252.917 44.9129L253.352 45.2674L253.761 45.6803L254.394 46.5247L254.85 47.4472L255.129 48.4449L255.23 49.5215L255.149 50.6061L254.879 51.6224L254.418 52.5705L253.772 53.4513L252.974 54.1947L252.068 54.7264L251.051 55.0534L250.501 55.142L249.924 55.1774L249.343 55.1588L248.789 55.0862L247.762 54.7849L246.842 54.2736L246.028 53.5514L245.359 52.6866L244.875 51.7482" fill="#060A03"/>
</g>
<defs>
<clipPath id="clip0">
<rect width="258" height="58" fill="white"/>
</clipPath>
</defs>
</svg>
