<svg width="287" height="33" viewBox="0 0 287 33" fill="none" xmlns="http://www.w3.org/2000/svg">
<g clip-path="url(#clip0)">
<path d="M63.8201 0.0214844L49.7656 21.8196L35.7091 0.0214844H28.4966L49.7656 32.9985L71.0307 0.0214844H63.8201Z" fill="#1F292C"/>
<path d="M7.80124 20.9189L0.0118408 33.0005H7.22056L11.014 27.1207H27.2212L23.2158 20.9189H7.80124Z" fill="#1F292C"/>
<path d="M10.1844 17.2162H17.3932L21.2745 11.2022L35.3309 33.0004H42.5454L21.2745 0.0195312L10.1844 17.2162Z" fill="#1F292C"/>
<path d="M78.908 16.8712L74.9121 23.073H85.9123L88.3114 26.7987H68.1961L81.8629 5.6138L78.2566 0.0214844L56.9819 33.0004H99.5218L89.1213 16.8712H78.908Z" fill="#1F292C"/>
<path d="M142.898 1.99971C143.586 1.62153 144.36 1.42934 145.145 1.44201C145.736 1.43219 146.323 1.54336 146.869 1.76875C147.416 1.99414 147.911 2.329 148.325 2.75289L149.297 1.74865C148.797 1.1788 148.172 0.732772 147.471 0.445436C146.712 0.140475 145.901 -0.010642 145.083 0.000810716C144.031 -0.0163932 142.993 0.240474 142.069 0.746324C141.191 1.22683 140.463 1.9436 139.968 2.81613C139.454 3.72385 139.191 4.75245 139.204 5.79627C139.19 6.83715 139.454 7.86287 139.968 8.76682C140.463 9.63582 141.186 10.3523 142.058 10.8385C142.973 11.3485 144.005 11.6082 145.051 11.5917C145.817 11.5952 146.578 11.4695 147.303 11.2199C147.997 10.9892 148.641 10.629 149.202 10.1582V5.73111H147.698V9.42226C146.936 9.92039 146.041 10.1768 145.131 10.1582C144.349 10.167 143.579 9.96867 142.898 9.58325C142.245 9.21632 141.706 8.67586 141.34 8.02131C140.963 7.34139 140.772 6.57391 140.786 5.79627C140.773 5.01208 140.968 4.23853 141.349 3.55398C141.715 2.90079 142.255 2.36261 142.908 1.99971" fill="#1F292C"/>
<path d="M160.022 8.01334H162.733C162.899 8.01334 163.13 8.00376 163.422 7.98076L165.785 11.463H167.493L164.893 7.66645C165.616 7.42316 166.243 6.9528 166.679 6.32491C167.11 5.66167 167.329 4.88187 167.306 4.09029C167.306 2.8599 166.898 1.89399 166.083 1.19256C165.268 0.491122 164.151 0.136572 162.733 0.128906H158.456V11.463H160.022V8.01334ZM160.022 1.53752H162.685C163.678 1.53752 164.433 1.75792 164.958 2.19488C165.483 2.63184 165.739 3.26045 165.739 4.0807C165.739 4.90096 165.478 5.5334 164.958 5.97419C164.438 6.41499 163.678 6.63922 162.685 6.63922H160.022V1.53752Z" fill="#1F292C"/>
<path d="M178.065 10.8379C178.982 11.3324 180.008 11.5912 181.049 11.5912C182.09 11.5912 183.115 11.3324 184.032 10.8379C184.904 10.354 185.625 9.63682 186.114 8.76618C186.623 7.86107 186.883 6.83653 186.867 5.79754C186.883 4.75727 186.624 3.73137 186.114 2.82506C185.624 1.95485 184.904 1.23777 184.032 0.753342C183.115 0.258823 182.09 0 181.049 0C180.008 0 178.982 0.258823 178.065 0.753342C177.191 1.24078 176.467 1.96017 175.974 2.83273C175.461 3.73535 175.197 4.75872 175.21 5.79754C175.198 6.83508 175.462 7.85709 175.974 8.75851C176.467 9.63107 177.191 10.3505 178.065 10.8379ZM177.337 3.57058C177.695 2.91879 178.223 2.37785 178.866 2.00672C179.53 1.62403 180.284 1.4256 181.051 1.43178C181.812 1.42385 182.562 1.6225 183.221 2.00672C183.858 2.38092 184.383 2.92132 184.739 3.57058C185.114 4.25181 185.306 5.01936 185.295 5.79754C185.306 6.57508 185.114 7.34195 184.739 8.02258C184.384 8.66986 183.861 9.20887 183.226 9.5826C182.568 9.96808 181.818 10.1668 181.056 10.1575C180.29 10.1646 179.536 9.96616 178.871 9.5826C178.229 9.21223 177.7 8.67193 177.343 8.02066C176.968 7.34036 176.776 6.57326 176.787 5.79562C176.776 5.01734 176.967 4.24956 177.343 3.56866" fill="#1F292C"/>
<path d="M203.481 10.3055C204.296 9.44687 204.704 8.20243 204.706 6.57214V0.128906H203.177V6.51656C203.177 7.74695 202.911 8.66111 202.379 9.25906C201.847 9.857 201.083 10.1566 200.087 10.1579C198.03 10.1579 197.001 8.94411 197 6.51656V0.128906H195.434V6.57214C195.434 8.19349 195.841 9.43473 196.656 10.2959C197.471 11.157 198.61 11.5889 200.072 11.5914C201.533 11.5914 202.671 11.1628 203.483 10.3055" fill="#1F292C"/>
<path d="M215.746 8.03059H218.454C219.873 8.03059 220.99 7.67987 221.807 6.97843C222.623 6.277 223.03 5.31109 223.029 4.0807C223.029 2.85032 222.622 1.88441 221.807 1.18297C220.992 0.48154 219.874 0.130184 218.454 0.128906H214.18V11.463H215.746V8.03059ZM215.746 1.53752H218.407C219.4 1.53752 220.158 1.75664 220.68 2.19488C221.199 2.63184 221.463 3.26045 221.463 4.0807C221.463 4.90096 221.199 5.52765 220.68 5.96461C220.16 6.40157 219.4 6.62197 218.407 6.62197H215.746V1.53752Z" fill="#1F292C"/>
<path d="M252.987 5.79754C253.003 4.75814 252.744 3.73304 252.237 2.82698C251.745 1.95653 251.024 1.23898 250.153 0.753342C249.235 0.258823 248.21 0 247.169 0C246.128 0 245.103 0.258823 244.185 0.753342C243.312 1.24146 242.589 1.96073 242.096 2.83273C241.582 3.73503 241.319 4.75861 241.332 5.79754C241.319 6.83519 241.583 7.8574 242.096 8.75851C242.589 9.63051 243.312 10.3498 244.185 10.8379C245.103 11.3324 246.128 11.5912 247.169 11.5912C248.21 11.5912 249.235 11.3324 250.153 10.8379C251.024 10.353 251.745 9.6361 252.237 8.76618C252.744 7.86054 253.003 6.83624 252.987 5.79754ZM250.865 8.02258C250.507 8.67279 249.978 9.21275 249.337 9.58452C248.682 9.96731 247.936 10.1653 247.179 10.1575C246.413 10.1651 245.659 9.96661 244.995 9.5826C244.353 9.21279 243.824 8.67234 243.467 8.02066C243.091 7.34051 242.899 6.57342 242.91 5.79562C242.898 5.01715 243.091 4.24931 243.467 3.56866C243.824 2.91687 244.353 2.37593 244.995 2.00481C245.659 1.62167 246.413 1.42319 247.179 1.42986C247.94 1.4219 248.689 1.62056 249.347 2.00481C249.988 2.37779 250.516 2.91827 250.875 3.56866C251.25 4.24982 251.441 5.01742 251.43 5.79562C251.441 6.57316 251.249 7.34003 250.875 8.02066" fill="#1F292C"/>
<path d="M264.389 6.88073H269.884V5.48936H264.389V1.53756H270.558V0.130859H262.822V11.4631H264.389V6.88073Z" fill="#1F292C"/>
<path d="M142.875 23.2347C143.548 22.8502 144.31 22.6517 145.084 22.6598C145.664 22.6472 146.24 22.7605 146.772 22.9921C147.305 23.2236 147.781 23.5679 148.168 24.0013L149.19 22.999C148.698 22.4207 148.075 21.9681 147.374 21.6786C146.628 21.3744 145.829 21.2226 145.024 21.232C143.984 21.2176 142.957 21.478 142.048 21.9871C141.178 22.4725 140.458 23.1885 139.966 24.0569C139.473 24.9687 139.214 25.9899 139.214 27.0275C139.214 28.0651 139.473 29.0862 139.966 29.998C140.456 30.8658 141.174 31.5823 142.041 32.0698C142.947 32.5776 143.971 32.8373 145.009 32.8229C145.817 32.8323 146.618 32.6778 147.364 32.3687C148.068 32.076 148.694 31.621 149.19 31.0406L148.172 30.021C147.786 30.4576 147.311 30.8052 146.778 31.04C146.246 31.2749 145.669 31.3915 145.087 31.3817C144.314 31.3898 143.552 31.1914 142.879 30.8068C142.231 30.4403 141.697 29.8993 141.338 29.2449C140.973 28.56 140.782 27.7954 140.782 27.0189C140.782 26.2423 140.973 25.4777 141.338 24.7928C141.697 24.1388 142.231 23.598 142.879 23.2309" fill="#1F292C"/>
<path d="M165.38 21.9807C164.464 21.4851 163.438 21.2256 162.397 21.2256C161.355 21.2256 160.33 21.4851 159.413 21.9807C158.54 22.4693 157.817 23.1884 157.322 24.0601C156.824 24.9679 156.563 25.9871 156.563 27.023C156.563 28.059 156.824 29.0781 157.322 29.9859C157.817 30.8572 158.54 31.5762 159.413 32.0653C160.331 32.5598 161.356 32.8186 162.397 32.8186C163.438 32.8186 164.463 32.5598 165.38 32.0653C166.251 31.5793 166.972 30.8627 167.464 29.9936C167.957 29.0814 168.215 28.0604 168.215 27.023C168.215 25.9857 167.957 24.9647 167.464 24.0525C166.972 23.1835 166.251 22.4673 165.38 21.9827V21.9807ZM166.093 29.25C165.734 29.9002 165.206 30.4401 164.565 30.8119C163.907 31.1971 163.158 31.3958 162.397 31.3869C161.631 31.3944 160.877 31.1958 160.214 30.8119C159.571 30.4413 159.043 29.9011 158.686 29.25C158.321 28.5651 158.13 27.8005 158.13 27.024C158.13 26.2474 158.321 25.4828 158.686 24.798C159.043 24.1469 159.571 23.6066 160.214 23.236C160.877 22.8521 161.631 22.6536 162.397 22.6611C163.158 22.6522 163.907 22.8509 164.565 23.236C165.206 23.6078 165.734 24.1478 166.093 24.798C166.458 25.4828 166.649 26.2474 166.649 27.024C166.649 27.8005 166.458 28.5651 166.093 29.25Z" fill="#1F292C"/>
<path d="M187.243 21.3564L182.734 29.3214L178.161 21.3564H176.877V32.6886H178.379V24.4803L182.34 31.3145H183.062L187.024 24.4324L187.039 32.6886H188.542L188.529 21.3564H187.243Z" fill="#1F292C"/>
<path d="M205.729 22.4086C204.914 21.7072 203.797 21.3564 202.377 21.3564H198.089V32.6886H199.655V29.2562H202.364C203.782 29.2562 204.9 28.9055 205.716 28.2041C206.532 27.5026 206.939 26.5367 206.936 25.3063C206.936 24.0759 206.53 23.11 205.716 22.4086H205.729ZM204.587 27.1998C204.065 27.6368 203.308 27.8559 202.316 27.8572H199.655V22.7651H202.316C203.307 22.7651 204.064 22.9835 204.587 23.4205C205.109 23.8594 205.37 24.4861 205.37 25.3063C205.37 26.1266 205.109 26.7552 204.587 27.1921" fill="#1F292C"/>
<path d="M218.267 21.3564L213.301 32.6886H214.913L216.12 29.8561H221.944L223.151 32.6886H224.796L219.816 21.3564H218.267ZM216.669 28.5567L219.035 22.9989L221.392 28.5567H216.669Z" fill="#1F292C"/>
<path d="M240.552 29.8063L233.976 21.3584H232.692V32.6887H234.259V24.2389L240.835 32.6887H242.119V21.3584H240.552V29.8063Z" fill="#1F292C"/>
<path d="M253.239 21.3564H251.673V32.6886H253.239V21.3564Z" fill="#1F292C"/>
<path d="M264.358 27.6215H269.853V26.2454H264.358V22.7651H270.528V21.3584H262.792V32.6887H270.747V31.2801H264.358V27.6215Z" fill="#1F292C"/>
<path d="M286.446 27.8959C286.099 27.483 285.656 27.1613 285.157 26.9587C284.509 26.7078 283.844 26.5022 283.167 26.3435C282.656 26.2279 282.151 26.0846 281.656 25.9143C281.308 25.7915 280.991 25.5955 280.726 25.3393C280.599 25.2174 280.5 25.07 280.434 24.9069C280.368 24.7437 280.337 24.5685 280.344 24.3926C280.341 24.1384 280.4 23.8873 280.516 23.6614C280.632 23.4355 280.802 23.2417 281.01 23.097C281.453 22.7636 282.119 22.5962 283.006 22.5949C283.524 22.5992 284.039 22.6786 284.534 22.8306C285.057 22.9868 285.553 23.2186 286.009 23.5186L286.527 22.2327C286.037 21.8908 285.491 21.6384 284.914 21.4872C284.292 21.3165 283.65 21.2295 283.004 21.2284C282.204 21.2026 281.408 21.3524 280.672 21.6673C280.102 21.9105 279.615 22.3155 279.27 22.8325C278.96 23.3206 278.799 23.8887 278.806 24.4673C278.806 25.1892 278.987 25.7641 279.348 26.1921C279.695 26.6148 280.142 26.9441 280.647 27.1504C281.299 27.3996 281.966 27.6045 282.645 27.7637C283.302 27.9272 283.812 28.0729 284.173 28.2006C284.514 28.3181 284.824 28.5092 285.083 28.7602C285.205 28.8847 285.301 29.0332 285.364 29.1964C285.427 29.3596 285.456 29.534 285.449 29.7089C285.453 29.9604 285.394 30.2088 285.276 30.431C285.158 30.6531 284.987 30.8418 284.777 30.9795C284.326 31.2977 283.647 31.4561 282.741 31.4548C282.053 31.4556 281.371 31.3322 280.728 31.0907C280.136 30.8847 279.591 30.5636 279.123 30.1459L278.55 31.4069C279.071 31.8769 279.687 32.2274 280.357 32.4341C281.126 32.7004 281.933 32.8351 282.747 32.8328C283.551 32.856 284.351 32.7098 285.096 32.4035C285.675 32.1649 286.171 31.7594 286.521 31.2383C286.832 30.7527 286.996 30.1866 286.991 29.6092C286.991 28.8989 286.81 28.3322 286.448 27.9093" fill="#1F292C"/>
<path d="M120.059 0.0214844H119.123V32.9985H120.059V0.0214844Z" fill="#1F292C"/>
</g>
<defs>
<clipPath id="clip0">
<rect width="287" height="33" fill="white"/>
</clipPath>
</defs>
</svg>
